<svg width="512" height="512" viewBox="0 0 512 512" fill="none" xmlns="http://www.w3.org/2000/svg">
<path d="M256 512C238.566 512 221.281 507.779 206.156 499.814L49.844 417.374C19.0733 401.172 0 370.946 0 338.542V173.594C0 141.19 19.0733 110.964 49.844 94.7619L206.156 12.1856C221.281 4.22072 238.491 0 256 0C273.509 0 290.719 4.22072 305.844 12.1856L462.156 94.6257C492.927 110.828 512 141.054 512 173.458V338.406C512 370.81 492.927 401.036 462.156 417.238L305.844 499.678C290.719 507.643 273.509 511.864 256 511.864V512ZM256 32.1319C244.675 32.1319 233.574 34.8549 223.739 40.0287L67.4272 122.469C47.5343 132.953 35.1665 152.49 35.1665 173.526V338.474C35.1665 359.442 47.5343 378.979 67.4272 389.531L223.739 471.971C233.499 477.145 244.675 479.868 256 479.868C267.325 479.868 278.426 477.145 288.261 471.971L444.573 389.531C464.466 379.047 476.834 359.51 476.834 338.474V173.526C476.834 152.558 464.466 133.021 444.573 122.469L288.261 40.0287C278.501 34.8549 267.325 32.1319 256 32.1319Z" fill="url(#paint0_linear_2311_3)"/>
<path d="M233.35 113.483C225.155 117.772 217.704 121.788 210.626 125.464C203.548 129.208 196.992 132.68 190.659 136.016C184.326 139.352 178.142 142.619 172.033 145.819C165.923 149.087 159.739 152.286 153.406 155.622C147.073 158.958 140.442 162.429 133.439 166.174C126.435 169.918 118.91 173.866 110.715 178.155C109.299 178.904 108.033 180.129 107.064 181.831C106.021 183.533 105.5 185.099 105.5 186.733V219.069C105.5 220.634 106.021 221.86 107.064 222.813C108.107 223.766 109.299 224.038 110.715 223.766C117.793 222.2 123.083 221.043 128.447 219.886C133.737 218.728 139.101 217.571 146.179 216.005V295.927C139.101 294.361 133.811 293.204 128.447 292.046C123.157 290.889 117.793 289.732 110.715 288.166C109.299 287.826 108.033 288.166 107.064 289.119C106.021 290.004 105.5 291.229 105.5 292.863V325.199C105.5 326.765 106.021 328.399 107.064 330.101C108.107 331.803 109.299 333.028 110.715 333.777C118.91 338.066 126.361 342.014 133.439 345.758C140.517 349.502 147.073 352.974 153.406 356.31C159.739 359.646 165.923 362.913 172.033 366.113C178.142 369.381 184.326 372.58 190.659 375.916C196.992 379.252 203.623 382.724 210.626 386.468C217.704 390.212 225.155 394.16 233.35 398.449C234.766 399.198 235.958 398.79 237.001 397.088C238.044 395.386 238.566 393.071 238.566 390.008V327.378C238.566 324.314 238.044 321.591 237.001 319.141C235.958 316.69 234.766 315.328 233.35 315.056C226.347 313.558 221.057 312.401 215.842 311.244C210.552 310.086 205.337 308.929 198.333 307.431V204.705C205.337 203.207 210.626 202.05 215.842 200.892C221.132 199.735 226.347 198.578 233.35 197.08C234.766 196.74 235.958 195.446 237.001 192.996C238.044 190.545 238.566 187.822 238.566 184.758V122.128C238.566 119.065 238.044 116.682 237.001 115.048C235.958 113.415 234.766 112.938 233.35 113.687V113.483Z" fill="url(#paint1_linear_2311_3)"/>
<path d="M399.423 178.223C391.227 173.866 383.702 169.918 376.624 166.174C369.546 162.429 362.915 158.958 356.582 155.622C350.249 152.286 344.065 149.018 337.881 145.751C331.697 142.483 325.588 139.284 319.18 135.88C312.773 132.544 306.216 129.004 299.138 125.328C292.06 121.584 284.535 117.635 276.34 113.279C274.924 112.53 273.658 113.006 272.689 114.64C271.646 116.342 271.125 118.725 271.125 121.72V390.144C271.125 393.207 271.646 395.59 272.689 397.224C273.732 398.926 274.924 399.334 276.34 398.585C284.684 394.16 290.943 390.893 297.276 387.557C303.534 384.221 309.793 380.954 318.212 376.529C319.627 375.78 320.82 374.214 321.863 371.899C322.906 369.585 323.427 367.202 323.427 364.683V297.969C331.921 296.403 338.924 295.042 345.555 293.816C352.186 292.591 358.221 291.434 364.852 290.208C371.409 288.983 378.487 287.621 386.98 286.056C388.396 285.783 389.588 284.898 390.631 283.469C391.674 282.039 392.196 280.473 392.196 278.771V243.576C392.196 241.874 391.674 240.377 390.631 238.947C389.588 237.585 388.396 236.768 386.98 236.632C378.487 235.611 371.483 234.794 364.852 233.977C358.296 233.16 352.186 232.48 345.555 231.663C338.999 230.846 331.921 230.029 323.427 229.008V207.428C331.027 209.062 337.658 210.491 343.842 211.853C350.026 213.214 355.762 214.44 361.425 215.665C367.162 216.89 372.824 218.116 379.008 219.477C385.192 220.839 391.823 222.268 399.423 223.902C400.838 224.242 402.03 223.902 403.073 222.949C404.116 222.064 404.638 220.839 404.638 219.205V186.665C404.638 185.099 404.116 183.465 403.073 181.763C402.03 180.061 400.838 178.836 399.423 178.087V178.223Z" fill="url(#paint2_linear_2311_3)"/>
<defs>
<linearGradient id="paint0_linear_2311_3" x1="0" y1="255.966" x2="511.925" y2="255.966" gradientUnits="userSpaceOnUse">
<stop stop-color="#FB4D46"/>
<stop offset="1" stop-color="#FAB15F"/>
</linearGradient>
<linearGradient id="paint1_linear_2311_3" x1="36.2842" y1="172.096" x2="433.894" y2="373.564" gradientUnits="userSpaceOnUse">
<stop stop-color="#FB4D46"/>
<stop offset="1" stop-color="#FAB15F"/>
</linearGradient>
<linearGradient id="paint2_linear_2311_3" x1="55.7299" y1="163.178" x2="453.34" y2="364.646" gradientUnits="userSpaceOnUse">
<stop stop-color="#FB4D46"/>
<stop offset="1" stop-color="#FAB15F"/>
</linearGradient>
</defs>
</svg>
