<svg width="106" height="15" viewBox="0 0 106 15" fill="none" xmlns="http://www.w3.org/2000/svg">
<path d="M95.7104 14.7538C95.5644 14.7538 95.4383 14.7073 95.3322 14.6144C95.2392 14.5215 95.1928 14.402 95.1928 14.256V1.11507C95.1928 0.969062 95.2392 0.849599 95.3322 0.756684C95.4383 0.663768 95.5644 0.61731 95.7104 0.61731H98.1395C98.2855 0.61731 98.405 0.663768 98.4979 0.756684C98.5908 0.849599 98.6373 0.969062 98.6373 1.11507V7.76519L101.285 4.73879C101.312 4.71224 101.358 4.66578 101.425 4.59942C101.504 4.53305 101.584 4.48659 101.664 4.46004C101.743 4.42022 101.843 4.40031 101.962 4.40031H104.77C104.889 4.40031 104.989 4.44677 105.068 4.53969C105.161 4.61933 105.208 4.72552 105.208 4.85825C105.208 4.97772 105.161 5.08391 105.068 5.17682L101.564 9.03946L105.566 13.9972C105.659 14.1167 105.706 14.2162 105.706 14.2958C105.706 14.4286 105.659 14.5414 105.566 14.6343C105.487 14.714 105.38 14.7538 105.248 14.7538H102.361C102.188 14.7538 102.055 14.7272 101.962 14.6741C101.883 14.6211 101.783 14.5348 101.664 14.4153L98.6373 10.6721V14.256C98.6373 14.3888 98.5908 14.5082 98.4979 14.6144C98.405 14.7073 98.2855 14.7538 98.1395 14.7538H95.7104Z" fill="#FA8F56"/>
<path d="M86.9112 14.7539C86.7785 14.7539 86.659 14.7074 86.5529 14.6145C86.4599 14.5083 86.4135 14.3888 86.4135 14.2561V4.91807C86.4135 4.77205 86.4599 4.65259 86.5529 4.55968C86.6458 4.45349 86.7652 4.40039 86.9112 4.40039H89.3403C89.4863 4.40039 89.6058 4.45349 89.6987 4.55968C89.8049 4.65259 89.858 4.77205 89.858 4.91807V5.67466C90.2297 5.26318 90.6611 4.95125 91.1522 4.73887C91.6566 4.51322 92.2141 4.40039 92.8247 4.40039H93.7206C93.8667 4.40039 93.9861 4.44685 94.079 4.53977C94.1719 4.63268 94.2184 4.75214 94.2184 4.89815V7.0684C94.2184 7.20114 94.1719 7.3206 94.079 7.42679C93.9861 7.51971 93.8667 7.56616 93.7206 7.56616H91.7097C91.1787 7.56616 90.7672 7.71218 90.4752 8.0042C90.1965 8.29622 90.0571 8.7077 90.0571 9.23865V14.2561C90.0571 14.4021 90.004 14.5216 89.8978 14.6145C89.8049 14.7074 89.6854 14.7539 89.5394 14.7539H86.9112Z" fill="#FA8F56"/>
<path d="M79.5591 14.9529C77.8866 14.9529 76.5991 14.5679 75.6965 13.798C74.8071 13.0149 74.3227 11.9065 74.243 10.473C74.2297 10.3004 74.2231 10.0018 74.2231 9.57702C74.2231 9.15226 74.2297 8.8536 74.243 8.68104C74.3227 7.27403 74.8204 6.17895 75.7363 5.3958C76.6655 4.59938 77.9397 4.20117 79.5591 4.20117C81.1785 4.20117 82.4461 4.59938 83.362 5.3958C84.2912 6.17895 84.7956 7.27403 84.8752 8.68104C84.9018 9.02616 84.9151 9.32482 84.9151 9.57702C84.9151 9.82922 84.9018 10.1279 84.8752 10.473C84.7956 11.9065 84.3045 13.0149 83.4019 13.798C82.5125 14.5679 81.2316 14.9529 79.5591 14.9529ZM79.5591 12.4441C80.1033 12.4441 80.5082 12.2782 80.7737 11.9464C81.0391 11.6013 81.1918 11.0769 81.2316 10.3734C81.2449 10.2407 81.2515 9.97523 81.2515 9.57702C81.2515 9.17881 81.2449 8.91333 81.2316 8.78059C81.1918 8.09036 81.0391 7.57269 80.7737 7.22757C80.5082 6.88246 80.1033 6.7099 79.5591 6.7099C79.0149 6.7099 78.61 6.88246 78.3446 7.22757C78.0791 7.57269 77.9265 8.09036 77.8866 8.78059L77.8667 9.57702L77.8866 10.3734C77.9265 11.0769 78.0791 11.6013 78.3446 11.9464C78.61 12.2782 79.0149 12.4441 79.5591 12.4441Z" fill="#FA8F56"/>
<path d="M61.4566 14.7539C61.2707 14.7539 61.1247 14.714 61.0185 14.6344C60.9256 14.5415 60.8526 14.4154 60.7995 14.2561L57.9324 5.03753L57.8926 4.85833C57.8926 4.7256 57.939 4.61941 58.032 4.53977C58.1249 4.44685 58.2311 4.40039 58.3505 4.40039H60.5208C60.6801 4.40039 60.8128 4.44685 60.919 4.53977C61.0252 4.61941 61.0915 4.71232 61.1181 4.81851L62.7507 10.3337L64.483 4.85833C64.5095 4.73887 64.5759 4.63268 64.6821 4.53977C64.7883 4.44685 64.9276 4.40039 65.1002 4.40039H66.474C66.6466 4.40039 66.786 4.44685 66.8921 4.53977C66.9983 4.63268 67.0713 4.73887 67.1112 4.85833L68.8434 10.3337L70.4561 4.81851C70.4959 4.71232 70.5623 4.61941 70.6552 4.53977C70.7614 4.44685 70.8942 4.40039 71.0534 4.40039H73.2237C73.3564 4.40039 73.4626 4.44685 73.5423 4.53977C73.6352 4.61941 73.6816 4.7256 73.6816 4.85833C73.6816 4.9247 73.675 4.98443 73.6617 5.03753L70.7747 14.2561C70.6818 14.5879 70.4694 14.7539 70.1376 14.7539H68.2461C67.9142 14.7539 67.6886 14.5879 67.5691 14.2561L65.7971 8.9599L64.0051 14.2561C63.9122 14.5879 63.6932 14.7539 63.3481 14.7539H61.4566Z" fill="#FA8F56"/>
<path d="M52.2369 14.9529C50.6175 14.9529 49.3432 14.5215 48.4141 13.6587C47.4849 12.7826 47.0071 11.515 46.9805 9.85576V9.23854C47.0336 7.65897 47.5247 6.42452 48.4539 5.53518C49.383 4.64584 50.6374 4.20117 52.217 4.20117C53.3585 4.20117 54.3209 4.43346 55.104 4.89804C55.9004 5.34935 56.4911 5.97985 56.876 6.78954C57.2743 7.58596 57.4734 8.49521 57.4734 9.51728V10.015C57.4734 10.1611 57.4203 10.2872 57.3141 10.3933C57.2212 10.4863 57.1017 10.5327 56.9557 10.5327H50.6441V10.6522C50.6573 11.2495 50.7967 11.734 51.0622 12.1057C51.3276 12.464 51.7059 12.6432 52.1971 12.6432C52.5156 12.6432 52.7678 12.5835 52.9537 12.464C53.1528 12.3313 53.3386 12.1654 53.5112 11.9663C53.6306 11.8335 53.7235 11.7539 53.7899 11.7274C53.8696 11.6875 53.989 11.6676 54.1483 11.6676H56.7566C56.876 11.6676 56.9756 11.7074 57.0552 11.7871C57.1482 11.8535 57.1946 11.9397 57.1946 12.0459C57.1946 12.391 56.9955 12.7959 56.5973 13.2605C56.2124 13.725 55.6416 14.1233 54.885 14.4551C54.1417 14.7869 53.259 14.9529 52.2369 14.9529ZM53.8098 8.50185V8.46203C53.8098 7.82489 53.6705 7.33376 53.3917 6.98865C53.113 6.63026 52.7214 6.45106 52.217 6.45106C51.7126 6.45106 51.321 6.63026 51.0423 6.98865C50.7768 7.33376 50.6441 7.82489 50.6441 8.46203V8.50185H53.8098Z" fill="#FA8F56"/>
<path d="M29.9975 14.7538C29.8647 14.7538 29.7453 14.7073 29.6391 14.6144C29.5462 14.5082 29.4997 14.3887 29.4997 14.256V4.89804C29.4997 4.75203 29.5462 4.63257 29.6391 4.53965C29.7453 4.44674 29.8647 4.40028 29.9975 4.40028H32.3071C32.4531 4.40028 32.5726 4.44674 32.6655 4.53965C32.7584 4.63257 32.8048 4.75203 32.8048 4.89804V5.575C33.1234 5.19006 33.5349 4.86486 34.0393 4.59938C34.5437 4.33391 35.1145 4.20117 35.7516 4.20117C37.2117 4.20117 38.2139 4.77194 38.7581 5.91348C39.0767 5.40908 39.5213 4.99759 40.0921 4.67902C40.6629 4.36046 41.2735 4.20117 41.9239 4.20117C43.0123 4.20117 43.895 4.57284 44.572 5.31616C45.2622 6.04622 45.6073 7.14129 45.6073 8.6014V14.256C45.6073 14.3887 45.5609 14.5082 45.4679 14.6144C45.375 14.7073 45.2556 14.7538 45.1096 14.7538H42.6606C42.5145 14.7538 42.3884 14.7073 42.2823 14.6144C42.1893 14.5215 42.1429 14.402 42.1429 14.256V8.74077C42.1429 8.13018 42.0101 7.68552 41.7447 7.40677C41.4925 7.11475 41.1474 6.96874 40.7093 6.96874C40.2978 6.96874 39.9594 7.11475 39.6939 7.40677C39.4417 7.68552 39.3156 8.13018 39.3156 8.74077V14.256C39.3156 14.3887 39.2691 14.5082 39.1762 14.6144C39.0833 14.7073 38.9638 14.7538 38.8178 14.7538H36.3688C36.2228 14.7538 36.0967 14.7073 35.9905 14.6144C35.8976 14.5215 35.8512 14.402 35.8512 14.256V8.74077C35.8512 8.13018 35.7184 7.68552 35.4529 7.40677C35.1875 7.11475 34.8424 6.96874 34.4176 6.96874C34.0061 6.96874 33.6676 7.11475 33.4022 7.40677C33.1367 7.68552 33.0039 8.12355 33.0039 8.72086V14.256C33.0039 14.3887 32.9575 14.5082 32.8646 14.6144C32.7717 14.7073 32.6522 14.7538 32.5062 14.7538H29.9975Z" fill="#FA8F56"/>
<path d="M21.2214 14.9529C20.5179 14.9529 19.8741 14.8201 19.2901 14.5546C18.7193 14.2759 18.268 13.8976 17.9362 13.4197C17.6176 12.9419 17.4583 12.4176 17.4583 11.8468C17.4583 10.9442 17.83 10.2142 18.5733 9.65666C19.3299 9.08589 20.3653 8.69432 21.6794 8.48194L24.1483 8.10364V7.86471C24.1483 7.37358 24.0487 7.01519 23.8496 6.78954C23.6505 6.56389 23.312 6.45106 22.8342 6.45106C22.5687 6.45106 22.343 6.49752 22.1572 6.59044C21.9847 6.68335 21.7856 6.82273 21.5599 7.00856C21.3873 7.15457 21.2347 7.26076 21.102 7.32713C21.0489 7.42004 20.9825 7.4665 20.9029 7.4665H18.5932C18.4605 7.4665 18.3477 7.42668 18.2547 7.34704C18.1751 7.25412 18.1419 7.14793 18.1552 7.02847C18.1685 6.67008 18.3477 6.27187 18.6928 5.83384C19.0379 5.38253 19.5622 4.99759 20.2657 4.67902C20.9692 4.36046 21.8386 4.20117 22.874 4.20117C24.5199 4.20117 25.7411 4.5662 26.5375 5.29625C27.334 6.01303 27.7322 6.98865 27.7322 8.2231V14.256C27.7322 14.3887 27.6857 14.5082 27.5928 14.6144C27.4999 14.7073 27.3804 14.7538 27.2344 14.7538H24.7854C24.6527 14.7538 24.5332 14.7073 24.427 14.6144C24.3341 14.5082 24.2876 14.3887 24.2876 14.256V13.5591C23.9956 13.9706 23.5908 14.3091 23.0731 14.5746C22.5554 14.8268 21.9382 14.9529 21.2214 14.9529ZM22.2169 12.6034C22.801 12.6034 23.2722 12.4109 23.6306 12.026C24.0023 11.6411 24.1881 11.0836 24.1881 10.3535V10.1146L22.5355 10.3933C21.4205 10.6057 20.863 11.0039 20.863 11.588C20.863 11.8933 20.9891 12.1388 21.2413 12.3247C21.5068 12.5105 21.832 12.6034 22.2169 12.6034Z" fill="#FA8F56"/>
<path d="M9.98891 14.7539C9.85618 14.7539 9.73671 14.7074 9.63052 14.6145C9.53761 14.5083 9.49115 14.3888 9.49115 14.2561V4.91807C9.49115 4.77205 9.53761 4.65259 9.63052 4.55968C9.72344 4.45349 9.8429 4.40039 9.98891 4.40039H12.418C12.564 4.40039 12.6835 4.45349 12.7764 4.55968C12.8826 4.65259 12.9357 4.77205 12.9357 4.91807V5.67466C13.3073 5.26318 13.7387 4.95125 14.2299 4.73887C14.7343 4.51322 15.2918 4.40039 15.9023 4.40039H16.7983C16.9443 4.40039 17.0638 4.44685 17.1567 4.53977C17.2496 4.63268 17.2961 4.75214 17.2961 4.89815V7.0684C17.2961 7.20114 17.2496 7.3206 17.1567 7.42679C17.0638 7.51971 16.9443 7.56616 16.7983 7.56616H14.7874C14.2564 7.56616 13.8449 7.71218 13.5529 8.0042C13.2742 8.29622 13.1348 8.7077 13.1348 9.23865V14.2561C13.1348 14.4021 13.0817 14.5216 12.9755 14.6145C12.8826 14.7074 12.7631 14.7539 12.6171 14.7539H9.98891Z" fill="#FA8F56"/>
<path d="M2.67694 14.7538C2.53093 14.7538 2.40483 14.7074 2.29864 14.6144C2.20572 14.5215 2.15926 14.4021 2.15926 14.2561V7.10817H0.665974C0.519963 7.10817 0.393863 7.06171 0.287674 6.96879C0.194758 6.87588 0.1483 6.75642 0.1483 6.61041V4.8981C0.1483 4.75209 0.194758 4.63263 0.287674 4.53971C0.393863 4.44679 0.519963 4.40034 0.665974 4.40034H2.15926V3.80302C2.15926 2.47565 2.5442 1.51331 3.31407 0.915992C4.08395 0.318677 5.18566 0.0200195 6.61922 0.0200195H8.19216C8.33817 0.0200195 8.45763 0.0664769 8.55055 0.159392C8.65674 0.252309 8.70983 0.371772 8.70983 0.517782V2.23009C8.70983 2.3761 8.65674 2.49556 8.55055 2.58848C8.45763 2.68139 8.33817 2.72785 8.19216 2.72785H6.77851C6.35375 2.72785 6.04845 2.8274 5.86262 3.02651C5.69006 3.21234 5.60379 3.50436 5.60379 3.90257V4.40034H7.99305C8.13906 4.40034 8.25852 4.44679 8.35144 4.53971C8.45763 4.63263 8.51072 4.75209 8.51072 4.8981V6.61041C8.51072 6.75642 8.45763 6.87588 8.35144 6.96879C8.25852 7.06171 8.13906 7.10817 7.99305 7.10817H5.60379V14.2561C5.60379 14.3888 5.55733 14.5082 5.46441 14.6144C5.3715 14.7074 5.25203 14.7538 5.10602 14.7538H2.67694Z" fill="#FA8F56"/>
</svg>
