<svg width="139" height="19" viewBox="0 0 139 19" fill="none" xmlns="http://www.w3.org/2000/svg">
<path d="M131.416 7.47573C134.15 7.7924 136.091 8.38407 137.241 9.25073C138.408 10.1007 138.991 11.3841 138.991 13.1007C138.991 14.8174 138.15 16.2091 136.466 17.2757C134.783 18.3424 132.55 18.8757 129.766 18.8757C126.983 18.8757 124.816 18.3674 123.266 17.3507C121.733 16.3174 120.966 15.0507 120.966 13.5507C120.966 13.1841 121.158 13.0007 121.541 13.0007H126.666C127.016 13.0007 127.3 13.1091 127.516 13.3257C127.983 13.7757 128.791 14.0007 129.941 14.0007C131.525 14.0007 132.316 13.7591 132.316 13.2757C132.316 12.9757 132.066 12.7424 131.566 12.5757C131.066 12.3924 130.075 12.2174 128.591 12.0507C123.875 11.4841 121.516 9.67573 121.516 6.62573C121.516 4.90907 122.275 3.52573 123.791 2.47573C125.308 1.40907 127.333 0.875732 129.866 0.875732C132.416 0.875732 134.475 1.43407 136.041 2.55073C137.608 3.65073 138.391 4.8174 138.391 6.05073C138.391 6.2174 138.333 6.35073 138.216 6.45073C138.116 6.55073 137.975 6.60073 137.791 6.60073H132.416C132.116 6.60073 131.858 6.50073 131.641 6.30073C131.241 5.93407 130.641 5.75073 129.841 5.75073C128.725 5.75073 128.166 5.98407 128.166 6.45073C128.166 6.70073 128.383 6.90073 128.816 7.05073C129.25 7.18407 130.116 7.32573 131.416 7.47573Z" fill="white"/>
<path d="M101.176 1.12573H118.426C118.609 1.12573 118.768 1.1924 118.901 1.32573C119.035 1.45907 119.101 1.6174 119.101 1.80073V5.82573C119.101 6.00907 119.035 6.1674 118.901 6.30073C118.768 6.43407 118.609 6.50073 118.426 6.50073H113.051V17.9507C113.051 18.1341 112.984 18.2924 112.851 18.4257C112.718 18.5591 112.559 18.6257 112.376 18.6257H107.226C107.043 18.6257 106.885 18.5591 106.751 18.4257C106.618 18.2924 106.551 18.1341 106.551 17.9507V6.50073H101.176C100.993 6.50073 100.834 6.43407 100.701 6.30073C100.568 6.1674 100.501 6.00907 100.501 5.82573V1.80073C100.501 1.6174 100.568 1.45907 100.701 1.32573C100.834 1.1924 100.993 1.12573 101.176 1.12573Z" fill="white"/>
<path d="M92.7359 1.12573H97.3859C97.5693 1.12573 97.7276 1.1924 97.8609 1.32573C97.9943 1.45907 98.0609 1.6174 98.0609 1.80073V17.9507C98.0609 18.1341 97.9943 18.2924 97.8609 18.4257C97.7276 18.5591 97.5693 18.6257 97.3859 18.6257H93.3609C92.9609 18.6257 92.6276 18.4507 92.3609 18.1007L86.9109 11.1507V17.9507C86.9109 18.1341 86.8443 18.2924 86.7109 18.4257C86.5776 18.5591 86.4193 18.6257 86.2359 18.6257H81.5859C81.4026 18.6257 81.2443 18.5591 81.1109 18.4257C80.9776 18.2924 80.9109 18.1341 80.9109 17.9507V1.80073C80.9109 1.6174 80.9776 1.45907 81.1109 1.32573C81.2443 1.1924 81.4026 1.12573 81.5859 1.12573H85.6359C86.0359 1.12573 86.3609 1.2924 86.6109 1.62573L92.0609 9.15073V1.80073C92.0609 1.6174 92.1276 1.45907 92.2609 1.32573C92.3943 1.1924 92.5526 1.12573 92.7359 1.12573Z" fill="white"/>
<path d="M67.4457 13.7507H77.4207C77.604 13.7507 77.7624 13.8174 77.8957 13.9507C78.029 14.0841 78.0957 14.2424 78.0957 14.4257V17.9507C78.0957 18.1341 78.029 18.2924 77.8957 18.4257C77.7624 18.5591 77.604 18.6257 77.4207 18.6257H61.6207C61.4374 18.6257 61.279 18.5591 61.1457 18.4257C61.0124 18.2924 60.9457 18.1341 60.9457 17.9507V1.80073C60.9457 1.6174 61.0124 1.45907 61.1457 1.32573C61.279 1.1924 61.4374 1.12573 61.6207 1.12573H77.1707C77.354 1.12573 77.5124 1.1924 77.6457 1.32573C77.779 1.45907 77.8457 1.6174 77.8457 1.80073V5.32573C77.8457 5.50907 77.779 5.6674 77.6457 5.80073C77.5124 5.93407 77.354 6.00073 77.1707 6.00073H67.4457V7.57573H75.7957C75.979 7.57573 76.1374 7.6424 76.2707 7.77573C76.404 7.90907 76.4707 8.0674 76.4707 8.25073V11.5007C76.4707 11.6841 76.404 11.8424 76.2707 11.9757C76.1374 12.1091 75.979 12.1757 75.7957 12.1757H67.4457V13.7507Z" fill="white"/>
<path d="M40.4555 1.12573H57.7055C57.8888 1.12573 58.0471 1.1924 58.1805 1.32573C58.3138 1.45907 58.3805 1.6174 58.3805 1.80073V5.82573C58.3805 6.00907 58.3138 6.1674 58.1805 6.30073C58.0471 6.43407 57.8888 6.50073 57.7055 6.50073H52.3305V17.9507C52.3305 18.1341 52.2638 18.2924 52.1305 18.4257C51.9971 18.5591 51.8388 18.6257 51.6555 18.6257H46.5055C46.3221 18.6257 46.1638 18.5591 46.0305 18.4257C45.8971 18.2924 45.8305 18.1341 45.8305 17.9507V6.50073H40.4555C40.2721 6.50073 40.1138 6.43407 39.9805 6.30073C39.8471 6.1674 39.7805 6.00907 39.7805 5.82573V1.80073C39.7805 1.6174 39.8471 1.45907 39.9805 1.32573C40.1138 1.1924 40.2721 1.12573 40.4555 1.12573Z" fill="white"/>
<path d="M32.0152 1.12573H36.6652C36.8486 1.12573 37.0069 1.1924 37.1402 1.32573C37.2736 1.45907 37.3402 1.6174 37.3402 1.80073V17.9507C37.3402 18.1341 37.2736 18.2924 37.1402 18.4257C37.0069 18.5591 36.8486 18.6257 36.6652 18.6257H32.6402C32.2402 18.6257 31.9069 18.4507 31.6402 18.1007L26.1902 11.1507V17.9507C26.1902 18.1341 26.1236 18.2924 25.9902 18.4257C25.8569 18.5591 25.6986 18.6257 25.5152 18.6257H20.8652C20.6819 18.6257 20.5236 18.5591 20.3902 18.4257C20.2569 18.2924 20.1902 18.1341 20.1902 17.9507V1.80073C20.1902 1.6174 20.2569 1.45907 20.3902 1.32573C20.5236 1.1924 20.6819 1.12573 20.8652 1.12573H24.9152C25.3152 1.12573 25.6402 1.2924 25.8902 1.62573L31.3402 9.15073V1.80073C31.3402 1.6174 31.4069 1.45907 31.5402 1.32573C31.6736 1.1924 31.8319 1.12573 32.0152 1.12573Z" fill="white"/>
<path d="M16.525 6.25073H12V13.5007H16.525C16.7083 13.5007 16.8667 13.5674 17 13.7007C17.1333 13.8341 17.2 13.9924 17.2 14.1757V17.9507C17.2 18.1341 17.1333 18.2924 17 18.4257C16.8667 18.5591 16.7083 18.6257 16.525 18.6257H0.675C0.491667 18.6257 0.333333 18.5591 0.2 18.4257C0.0666668 18.2924 0 18.1341 0 17.9507V14.1757C0 13.9924 0.0666668 13.8341 0.2 13.7007C0.333333 13.5674 0.491667 13.5007 0.675 13.5007H5.25V6.25073H0.675C0.491667 6.25073 0.333333 6.18407 0.2 6.05073C0.0666668 5.9174 0 5.75907 0 5.57573V1.80073C0 1.6174 0.0666668 1.45907 0.2 1.32573C0.333333 1.1924 0.491667 1.12573 0.675 1.12573H16.525C16.7083 1.12573 16.8667 1.1924 17 1.32573C17.1333 1.45907 17.2 1.6174 17.2 1.80073V5.57573C17.2 5.75907 17.1333 5.9174 17 6.05073C16.8667 6.18407 16.7083 6.25073 16.525 6.25073Z" fill="white"/>
</svg>
