<svg width="38" height="39" viewBox="0 0 38 39" fill="none" xmlns="http://www.w3.org/2000/svg">
<path d="M19.0028 38.8757C17.7086 38.8757 16.4256 38.5625 15.3029 37.9713L3.6999 31.8527C1.41581 30.6502 0 28.4069 0 26.0019V13.7597C0 11.3547 1.41581 9.11134 3.6999 7.90884L15.3029 1.78013C16.4256 1.18899 17.7031 0.875732 19.0028 0.875732C20.3024 0.875732 21.58 1.18899 22.7027 1.78013L34.3056 7.89873C36.5897 9.10123 38.0055 11.3446 38.0055 13.7496V25.9918C38.0055 28.3968 36.5897 30.6401 34.3056 31.8426L22.7027 37.9612C21.58 38.5524 20.3024 38.8656 19.0028 38.8656V38.8757ZM19.0028 3.26052C18.1621 3.26052 17.3381 3.46262 16.6081 3.84661L5.00509 9.96521C3.52845 10.7433 2.61039 12.1934 2.61039 13.7546V25.9969C2.61039 27.553 3.52845 29.0031 5.00509 29.7862L16.6081 35.9049C17.3326 36.2888 18.1621 36.4909 19.0028 36.4909C19.8434 36.4909 20.6674 36.2888 21.3975 35.9049L33.0004 29.7862C34.4771 29.0082 35.3951 27.5581 35.3951 25.9969V13.7546C35.3951 12.1984 34.4771 10.7484 33.0004 9.96521L21.3975 3.84661C20.673 3.46262 19.8434 3.26052 19.0028 3.26052Z" fill="url(#paint0_linear_8_132)"/>
<path d="M17.3215 9.2983C16.7131 9.61661 16.1601 9.91471 15.6347 10.1875C15.1093 10.4654 14.6226 10.7231 14.1525 10.9707C13.6824 11.2183 13.2234 11.4608 12.7699 11.6983C12.3164 11.9408 11.8574 12.1782 11.3873 12.4258C10.9172 12.6734 10.425 12.9311 9.90511 13.209C9.38524 13.4868 8.82666 13.7799 8.21831 14.0982C8.11323 14.1538 8.01921 14.2447 7.94732 14.371C7.86989 14.4973 7.83118 14.6136 7.83118 14.7348V17.1348C7.83118 17.251 7.86989 17.3419 7.94732 17.4126C8.02474 17.4834 8.11323 17.5036 8.21831 17.4834C8.74371 17.3672 9.13637 17.2813 9.53457 17.1954C9.92723 17.1095 10.3254 17.0236 10.8508 16.9074V22.8391C10.3254 22.7228 9.93276 22.637 9.53457 22.5511C9.1419 22.4652 8.74371 22.3793 8.21831 22.2631C8.11323 22.2378 8.01921 22.2631 7.94732 22.3338C7.86989 22.3995 7.83118 22.4904 7.83118 22.6117V25.0116C7.83118 25.1278 7.86989 25.2491 7.94732 25.3754C8.02474 25.5017 8.11323 25.5927 8.21831 25.6483C8.82666 25.9666 9.37971 26.2596 9.90511 26.5375C10.4305 26.8154 10.9172 27.0731 11.3873 27.3206C11.8574 27.5682 12.3164 27.8107 12.7699 28.0482C13.2234 28.2907 13.6824 28.5282 14.1525 28.7758C14.6226 29.0233 15.1148 29.281 15.6347 29.5589C16.1601 29.8368 16.7131 30.1298 17.3215 30.4482C17.4266 30.5037 17.5151 30.4734 17.5925 30.3471C17.6699 30.2208 17.7086 30.049 17.7086 29.8216V25.1733C17.7086 24.946 17.6699 24.7439 17.5925 24.562C17.5151 24.3801 17.4266 24.279 17.3215 24.2588C16.8016 24.1477 16.409 24.0618 16.0218 23.9759C15.6292 23.89 15.242 23.8041 14.7222 23.6929V16.0687C15.242 15.9575 15.6347 15.8716 16.0218 15.7857C16.4145 15.6998 16.8016 15.614 17.3215 15.5028C17.4266 15.4775 17.5151 15.3815 17.5925 15.1996C17.6699 15.0178 17.7086 14.8157 17.7086 14.5883V9.93997C17.7086 9.71261 17.6699 9.53577 17.5925 9.41451C17.5151 9.29325 17.4266 9.25788 17.3215 9.31346V9.2983Z" fill="url(#paint1_linear_8_132)"/>
<path d="M29.649 14.1032C29.0406 13.7798 28.482 13.4868 27.9566 13.2089C27.4312 12.931 26.939 12.6733 26.4689 12.4257C25.9988 12.1782 25.5398 11.9356 25.0808 11.6931C24.6217 11.4506 24.1682 11.2131 23.6926 10.9605C23.217 10.7129 22.7303 10.4502 22.2049 10.1774C21.6795 9.89947 21.1209 9.60643 20.5126 9.28307C20.4075 9.22749 20.3135 9.26286 20.2416 9.38412C20.1642 9.51043 20.1255 9.68727 20.1255 9.90958V29.8317C20.1255 30.059 20.1642 30.2359 20.2416 30.3571C20.319 30.4834 20.4075 30.5138 20.5126 30.4582C21.132 30.1298 21.5966 29.8872 22.0667 29.6397C22.5312 29.3921 22.9958 29.1496 23.6207 28.8212C23.7258 28.7656 23.8143 28.6494 23.8917 28.4776C23.9691 28.3058 24.0079 28.129 24.0079 27.942V22.9906C24.6383 22.8743 25.1582 22.7733 25.6504 22.6823C26.1426 22.5914 26.5906 22.5055 27.0828 22.4146C27.5695 22.3236 28.0949 22.2226 28.7254 22.1064C28.8304 22.0862 28.9189 22.0205 28.9964 21.9144C29.0738 21.8083 29.1125 21.6921 29.1125 21.5657V18.9536C29.1125 18.8273 29.0738 18.7161 28.9964 18.61C28.9189 18.509 28.8304 18.4483 28.7254 18.4382C28.0949 18.3624 27.575 18.3018 27.0828 18.2412C26.5961 18.1806 26.1426 18.13 25.6504 18.0694C25.1637 18.0088 24.6383 17.9481 24.0079 17.8723V16.2707C24.572 16.392 25.0642 16.4981 25.5232 16.5991C25.9822 16.7002 26.4081 16.7911 26.8284 16.8821C27.2543 16.973 27.6746 17.0639 28.1336 17.165C28.5926 17.266 29.0849 17.3721 29.649 17.4934C29.754 17.5187 29.8425 17.4934 29.92 17.4227C29.9974 17.357 30.0361 17.266 30.0361 17.1448V14.7297C30.0361 14.6135 29.9974 14.4922 29.92 14.3659C29.8425 14.2396 29.754 14.1486 29.649 14.0931V14.1032Z" fill="url(#paint2_linear_8_132)"/>
<defs>
<linearGradient id="paint0_linear_8_132" x1="0" y1="19.8732" x2="38" y2="19.8732" gradientUnits="userSpaceOnUse">
<stop stop-color="#FB4D46"/>
<stop offset="1" stop-color="#FAB15F"/>
</linearGradient>
<linearGradient id="paint1_linear_8_132" x1="2.69335" y1="13.6485" x2="32.206" y2="28.6047" gradientUnits="userSpaceOnUse">
<stop stop-color="#FB4D46"/>
<stop offset="1" stop-color="#FAB15F"/>
</linearGradient>
<linearGradient id="paint2_linear_8_132" x1="4.13681" y1="12.9866" x2="33.6495" y2="27.9427" gradientUnits="userSpaceOnUse">
<stop stop-color="#FB4D46"/>
<stop offset="1" stop-color="#FAB15F"/>
</linearGradient>
</defs>
</svg>
